<?xml version="1.0" encoding="utf-8"?>
<!-- Generator: Adobe Illustrator 18.0.0, SVG Export Plug-In . SVG Version: 6.00 Build 0)  -->
<!DOCTYPE svg PUBLIC "-//W3C//DTD SVG 1.1//EN" "http://www.w3.org/Graphics/SVG/1.1/DTD/svg11.dtd">
<svg version="1.1" id="Layer_1" xmlns="http://www.w3.org/2000/svg" xmlns:xlink="http://www.w3.org/1999/xlink" x="0px" y="0px"
	 viewBox="0 0 310 60" enable-background="new 0 0 310 60" xml:space="preserve">
<g>
	<path fill="#FF6B00" d="M201.4,33.9c-0.2,2.5-1.2,3.3-1.9,3.7c-1.5,0.9-3.9,1-6.9,0.5c-4.6-0.7-10.7-2.8-17.2-5.5
		c10.2-4.8,19.6-7.8,23.7-5.4C199.8,27.7,201.8,28.8,201.4,33.9z M149,26.1c-10.2,4.8-19.6,7.8-23.7,5.4c-0.6-0.4-2.6-1.5-2.2-6.6
		c0.2-2.5,1.2-3.3,1.9-3.7c1.5-0.9,3.9-1,6.9-0.5C136.4,21.3,142.5,23.4,149,26.1z M201.7,22.9c-6.8-3.9-20.1,0.9-32,7
		c-3-1.4-6.1-2.8-9-4.2c8.7-4.8,15.8-9.6,17.5-10.8c1.1-0.8,1.4-2.3,0.6-3.5c-0.8-1.1-2.3-1.4-3.5-0.6c-5.7,3.9-13,8.5-20.4,12.4
		c-14.1-6.2-26.2-10-32.5-6.4c-1.8,1.1-4,3.2-4.3,7.7c-0.5,6.9,2.3,10,4.7,11.4c6.8,3.9,20.1-0.9,32-7c3,1.4,6.1,2.8,9,4.2
		c-8.7,4.8-15.8,9.6-17.5,10.8c-1.1,0.8-1.4,2.3-0.6,3.5c0.8,1.1,2.3,1.4,3.5,0.6c5.7-3.9,13-8.5,20.4-12.4
		c14.1,6.2,26.2,10,32.5,6.4c1.8-1.1,4-3.2,4.3-7.7C206.9,27.4,204.1,24.3,201.7,22.9z"/>
	<g>
		<path fill="#77777A" d="M290.9,24.5h6.6v-1.8h-8.4v13.1h8.4v-1.8h-6.6v-4.3h6V28h-6V24.5z M279.7,22.7h-1.8v13.1h7.1v-1.8h-5.4
			V22.7z M270.2,34.1v-9.6h2.5v-1.8h-6.6v1.8h2.4v9.6h-2.4v1.8h6.6v-1.8H270.2z M260.1,32c0,1.6-1.1,2.1-2.1,2.1h-3.2v-4.2h3.3
			C259.4,29.9,260.1,30.7,260.1,32 M254.8,28.1v-3.7h3c1.1,0,2,0.5,2,1.9c0,1.1-0.6,1.8-2,1.8H254.8z M253.1,22.7v13.2h5
			c2.3,0,3.9-1.4,3.9-3.8c0-1.4-0.6-2.5-1.7-3c1.2-0.6,1.6-1.7,1.6-2.7c0-2.2-1.5-3.6-3.8-3.6H253.1z M246.8,32.3c0,2-1.7,2-2.6,2
			c-1,0-2.7,0-2.7-2.1v-5.9c0-2,1.6-2.1,2.7-2.1c0.9,0,2.6,0.1,2.6,2.1V32.3z M239.8,32.4c0,1.4,0.5,2.3,1.3,2.9
			c0.8,0.6,1.9,0.8,3.2,0.8c1.2,0,2.3-0.2,3.2-0.8c0.7-0.6,1.2-1.4,1.2-2.9v-6.1c0-1.2-0.4-2.1-0.9-2.6c-0.8-0.8-2.1-1.1-3.5-1.1
			c-1.4,0-2.6,0.3-3.4,1c-0.6,0.6-1,1.4-1,2.7V32.4z M231,31.5l1.8-7.1l0.4,11.4h1.8l-0.5-13.1h-3.1l-1.8,6.9l-1.8-6.9h-3.1
			l-0.5,13.1h1.8l0.4-11.4l1.8,7.1H231z"/>
		<path fill="#77777A" d="M96.9,36.1c2.6,0,4.5-1.1,4.5-4c0-2.3-1.3-3.1-3.4-3.7c-1.2-0.4-2.3-0.6-2.9-1.1c-0.5-0.4-0.6-0.7-0.5-1.3
			c0.1-1.2,1.3-1.5,2.3-1.4c1.1,0,2,0.3,2.8,1.2l1.3-1.3c-1.2-1.3-2.1-1.7-4.1-1.7c-1.5,0-2.5,0.4-3.2,1.1c-0.7,0.7-0.9,1.4-0.9,2.1
			c0,1.2,0.5,2,1.2,2.6c0.8,0.6,1.6,0.9,3.4,1.5c2,0.6,2.3,0.9,2.3,2.1c0,2-1.6,2.2-2.7,2.2c-1.4,0-2-0.1-2.8-1.2l-1.4,1.1
			C93.5,35.6,94.6,36.1,96.9,36.1z M83.9,36.1c2.6,0,4.5-1.1,4.5-4c0-2.3-1.3-3.1-3.4-3.7c-1.2-0.4-2.3-0.6-2.9-1.1
			c-0.5-0.4-0.6-0.7-0.5-1.3c0.1-1.2,1.3-1.5,2.3-1.4c1.1,0,2,0.3,2.8,1.2l1.3-1.3c-1.2-1.3-2.1-1.7-4.1-1.7c-1.5,0-2.5,0.4-3.3,1.1
			c-0.7,0.7-0.9,1.4-0.9,2.1c0,1.2,0.5,2,1.2,2.6c0.8,0.6,1.6,0.9,3.4,1.5c2,0.6,2.3,0.9,2.3,2.1c0,2-1.6,2.2-2.7,2.2
			c-1.4,0-2-0.1-2.8-1.2l-1.4,1.1C80.5,35.6,81.6,36.1,83.9,36.1z M67.6,24.5h6.8v-1.8h-8.6v13.1h8.6v-1.8h-6.8v-4.3h6.1V28h-6.1
			V24.5z M56.1,22.7h-1.8v13.1h7.3v-1.8h-5.5V22.7z M47.9,32c0,1.7-1.1,2.1-2.1,2.1h-3.2v-9.6h3.2c1,0,2.1,0.4,2.1,2.1V32z
			 M45.8,35.8c2.3,0,3.9-1.3,3.9-3.8v-5.5c0-2.6-1.8-3.8-3.9-3.8h-5v13.2H45.8z M28.3,24.4l4.2,11.4h2.9V22.7h-1.8V34l-4.2-11.3h-3
			v13.1h1.8V24.4z M14.3,24.5h6.8v-1.8h-8.6v13.1h8.6v-1.8h-6.8v-4.3h6.1V28h-6.1V24.5z"/>
	</g>
</g>
</svg>
