<?xml version="1.0" encoding="utf-8"?>
<!-- Generator: Adobe Illustrator 16.0.0, SVG Export Plug-In . SVG Version: 6.00 Build 0)  -->
<!DOCTYPE svg PUBLIC "-//W3C//DTD SVG 1.1//EN" "http://www.w3.org/Graphics/SVG/1.1/DTD/svg11.dtd">
<svg version="1.1" id="Layer_1" xmlns="http://www.w3.org/2000/svg" xmlns:xlink="http://www.w3.org/1999/xlink" x="0px" y="0px"
	 width="98px" height="45px" viewBox="-0.5 0.5 98 45" enable-background="new -0.5 0.5 98 45" xml:space="preserve">
<path fill="#FF6B00" d="M89.065,27.265c-0.193,2.607-1.212,3.492-1.963,3.932c-1.609,0.938-4.122,1.047-7.26,0.548
	c-4.847-0.769-11.189-2.979-18.009-5.797c10.674-5.078,20.531-8.155,24.911-5.646C87.417,20.686,89.464,21.858,89.065,27.265
	 M34.042,19.05c-10.671,5.078-20.528,8.16-24.908,5.649c-0.674-0.387-2.72-1.557-2.321-6.964c0.191-2.61,1.211-3.493,1.961-3.934
	c1.611-0.937,4.121-1.043,7.259-0.547C20.882,14.022,27.225,16.232,34.042,19.05 M89.359,15.733
	c-7.168-4.111-21.115,0.981-33.604,7.322c-3.191-1.505-6.359-2.991-9.451-4.402c9.148-5.092,16.556-10.12,18.344-11.354
	c1.198-0.825,1.499-2.465,0.676-3.661c-0.826-1.198-2.464-1.498-3.662-0.671c-5.962,4.111-13.675,8.876-21.427,12.972
	C25.379,9.469,12.693,5.425,6.124,9.256c-1.891,1.103-4.216,3.402-4.561,8.092c-0.53,7.202,2.401,10.456,4.955,11.92
	c7.166,4.108,21.116-0.984,33.603-7.324c3.193,1.505,6.36,2.991,9.452,4.405C40.427,31.435,33.019,36.467,31.227,37.7
	c-1.194,0.828-1.498,2.468-0.673,3.661c0.825,1.198,2.465,1.497,3.663,0.673c5.959-4.112,13.672-8.878,21.426-12.975
	c14.856,6.47,27.542,10.513,34.111,6.683c1.892-1.102,4.216-3.4,4.562-8.093C94.848,20.45,91.914,17.195,89.359,15.733"/>
</svg>
