<?xml version="1.0" encoding="utf-8"?>
<!-- Generator: Adobe Illustrator 18.1.1, SVG Export Plug-In . SVG Version: 6.00 Build 0)  -->
<svg version="1.1" id="Layer_1" xmlns="http://www.w3.org/2000/svg" xmlns:xlink="http://www.w3.org/1999/xlink" x="0px" y="0px"
	 viewBox="-52.8 -11.5 169.5 87" enable-background="new -52.8 -11.5 169.5 87" xml:space="preserve">
<g>
	<g>
		<path fill="#F36C21" d="M65.2,5.3c-6.1-3.5-18,0.8-28.7,6.3c-2.7-1.3-5.4-2.6-8.1-3.8c7.8-4.3,14.1-8.6,15.7-9.7
			c1-0.7,1.3-2.1,0.6-3.1c-0.7-1-2.1-1.3-3.1-0.6C36.5-2.1,29.9,2,23.3,5.5C10.6,0-0.3-3.5-5.9-0.2c-1.6,0.9-3.6,2.9-3.9,6.9
			c-0.5,6.1,2.1,8.9,4.2,10.2c6.1,3.5,18-0.8,28.7-6.3c2.7,1.3,5.4,2.6,8.1,3.8c-7.8,4.3-14.1,8.6-15.7,9.7c-1,0.7-1.3,2.1-0.6,3.1
			c0.7,1,2.1,1.3,3.1,0.6c5.1-3.5,11.7-7.6,18.3-11.1c12.7,5.5,23.5,9,29.1,5.7c1.6-0.9,3.6-2.9,3.9-6.9C69.9,9.3,67.4,6.5,65.2,5.3
			z M-3.3,13c-0.6-0.3-2.3-1.3-2-5.9c0.2-2.2,1-3,1.7-3.4c1.4-0.8,3.5-0.9,6.2-0.5C6.7,3.8,12.1,5.7,18,8.1
			C8.9,12.5,0.4,15.1-3.3,13z M65,15.1c-0.2,2.2-1,3-1.7,3.4c-1.4,0.8-3.5,0.9-6.2,0.5c-4.1-0.7-9.6-2.5-15.4-4.9
			c9.1-4.3,17.5-7,21.3-4.8C63.5,9.5,65.3,10.5,65,15.1z"/>
	</g>
	<g>
		<path fill="#77777A" d="M-47.9,48.4h12.1v1.8H-46v6.9h7.6v1.7H-46v8h10.7v1.8h-12.7V48.4z"/>
		<path fill="#77777A" d="M-24.9,48.4h2.1l11.2,16.7h0.1V48.4h1.8v20.2h-1.7L-23,51.4H-23v17.2h-1.8V48.4z"/>
		<path fill="#77777A" d="M2,48.4h5.1c6.6,0,10.1,3.4,10.1,10.1S13.6,68.6,7.1,68.6H2V48.4z M7.4,66.9c5,0,7.8-2.5,7.8-8.4
			c0-5.7-2.8-8.3-7.9-8.3H3.9v16.7H7.4z"/>
		<path fill="#77777A" d="M27.9,48.4h1.9v18.5h9.9v1.8H27.9V48.4z"/>
		<path fill="#77777A" d="M49.9,48.4H62v1.8H51.9v6.9h7.6v1.7h-7.6v8h10.7v1.8H49.9V48.4z"/>
		<path fill="#77777A" d="M71.5,63.6l1.7-0.6c0.9,2.8,3,4.3,5.8,4.3c3,0,5-1.4,5-3.7c0-2.1-1-3.2-5.3-4.5c-4.3-1.4-6.6-2.5-6.6-5.9
			c0-2.9,2.6-5.2,6.3-5.2c3.8,0,6,1.9,6.9,4.6l-1.6,0.8c-1-2.6-2.8-3.7-5.3-3.7c-2.7,0-4.3,1.4-4.3,3.3c0,2.3,1.3,3,5.6,4.4
			c4.2,1.3,6.3,2.7,6.3,6c0,3.4-3,5.5-7,5.5C75.1,69,72.4,66.9,71.5,63.6z"/>
		<path fill="#77777A" d="M95.5,63.6l1.7-0.6c0.9,2.8,3,4.3,5.8,4.3c3,0,5-1.4,5-3.7c0-2.1-1-3.2-5.3-4.5c-4.3-1.4-6.6-2.5-6.6-5.9
			c0-2.9,2.6-5.2,6.3-5.2c3.8,0,6,1.9,6.9,4.6l-1.6,0.8c-1-2.6-2.8-3.7-5.3-3.7c-2.7,0-4.3,1.4-4.3,3.3c0,2.3,1.3,3,5.6,4.4
			c4.2,1.3,6.3,2.7,6.3,6c0,3.4-3,5.5-7,5.5C99.1,69,96.4,66.9,95.5,63.6z"/>
	</g>
</g>
</svg>
